<svg width="200" height="200" viewBox="0 0 200 200" xmlns="http://www.w3.org/2000/svg">
  <defs>
    <!-- Background gradient for depth -->
    <radialGradient id="bgGlow" cx="50%" cy="50%" r="50%">
      <stop offset="0%" stop-color="#6366f1" stop-opacity="0.3"/>
      <stop offset="100%" stop-color="#6366f1" stop-opacity="0"/>
    </radialGradient>
    
    <!-- Glass surface gradient -->
    <linearGradient id="glassSurface" x1="0%" y1="0%" x2="100%" y2="100%">
      <stop offset="0%" stop-color="white" stop-opacity="0.4"/>
      <stop offset="50%" stop-color="white" stop-opacity="0.1"/>
      <stop offset="100%" stop-color="white" stop-opacity="0.05"/>
    </linearGradient>
    
    <!-- Edge highlight gradient -->
    <linearGradient id="edgeHighlight" x1="0%" y1="0%" x2="0%" y2="100%">
      <stop offset="0%" stop-color="white" stop-opacity="0.8"/>
      <stop offset="100%" stop-color="white" stop-opacity="0.1"/>
    </linearGradient>
    
    <!-- Inner shadow for depth -->
    <filter id="innerShadow" x="-20%" y="-20%" width="140%" height="140%">
      <feGaussianBlur in="SourceAlpha" stdDeviation="3" result="blur"/>
      <feOffset dx="2" dy="4" result="offsetBlur"/>
      <feComposite in="offsetBlur" in2="SourceAlpha" operator="arithmetic" k2="-1" k3="1" result="shadowDiff"/>
      <feFlood flood-color="#000000" flood-opacity="0.15"/>
      <feComposite in2="shadowDiff" operator="in"/>
      <feComposite in2="SourceGraphic" operator="over"/>
    </filter>
    
    <!-- Drop shadow for floating effect -->
    <filter id="dropShadow" x="-50%" y="-50%" width="200%" height="200%">
      <feGaussianBlur in="SourceAlpha" stdDeviation="8" result="blur"/>
      <feOffset dx="0" dy="12" result="offsetBlur"/>
      <feComponentTransfer>
        <feFuncA type="linear" slope="0.3"/>
      </feComponentTransfer>
      <feMerge>
        <feMergeNode in="offsetBlur"/>
        <feMergeNode in="SourceGraphic"/>
      </feMerge>
    </filter>
    
    <!-- Stronger blur for backdrop simulation -->
    <filter id="strongBlur">
      <feGaussianBlur stdDeviation="15"/>
    </filter>
    
    <!-- Home icon path -->
    <path id="homeShape" d="M100 45 
             L45 90 
             L55 90 
             L55 140 
             Q55 150 65 150 
             L85 150 
             L85 115 
             Q85 110 90 110 
             L110 110 
             Q115 110 115 115 
             L115 150 
             L135 150 
             Q145 150 145 140 
             L145 90 
             L155 90 
             Z"/>
  </defs>
  
  <!-- Background glow -->
  <circle cx="100" cy="100" r="80" fill="url(#bgGlow)"/>
  
  <!-- Simulated blurred background elements behind glass -->
  <g filter="url(#strongBlur)" opacity="0.6">
    <circle cx="70" cy="70" r="25" fill="#ec4899"/>
    <circle cx="140" cy="60" r="20" fill="#8b5cf6"/>
    <circle cx="130" cy="130" r="30" fill="#06b6d4"/>
    <circle cx="60" cy="140" r="18" fill="#10b981"/>
  </g>
  
  <!-- Glass base shape with shadow -->
  <use href="#homeShape" fill="url(#glassSurface)" filter="url(#dropShadow)"/>
  
  <!-- Inner shadow for depth -->
  <use href="#homeShape" fill="none" filter="url(#innerShadow)"/>
  
  <!-- Top edge highlight (glass reflection) -->
  <path d="M100 45 L45 90 L55 90 L100 52 L145 90 L155 90 Z" fill="white" opacity="0.3"/>
  
  <!-- Left edge highlight -->
  <path d="M45 90 L55 90 L55 140 Q55 150 65 150 L85 150 L85 115 Q85 110 90 110 L100 110 L100 100 L55 100 L55 90 Z" fill="url(#edgeHighlight)" opacity="0.4"/>
  
  <!-- Bottom subtle reflection -->
  <path d="M65 150 L135 150 L145 140 L55 140 Z" fill="white" opacity="0.1"/>
  
  <!-- Specular highlight (shine spot) -->
  <ellipse cx="85" cy="75" rx="15" ry="8" fill="white" opacity="0.25" transform="rotate(-30 85 75)"/>
  
  <!-- Thin border stroke -->
  <use href="#homeShape" fill="none" stroke="white" stroke-width="1.5" opacity="0.4"/>
  
  <!-- Second thinner inner stroke -->
  <use href="#homeShape" fill="none" stroke="white" stroke-width="0.5" opacity="0.2" transform="scale(0.97) translate(3, 3)"/>
</svg>